<?xml version="1.0" encoding="UTF-8"?>
<svg xmlns="http://www.w3.org/2000/svg" version="1.1" height="80" width="80">
 <defs>
  <linearGradient id="hicg_overlay_grad" gradientUnits="userSpaceOnUse" x1="39.9995" y1="5.1816" x2="39.9995" y2="58.8019">
   <stop offset="0" style="stop-color:#FFFFFF"/>
   <stop offset="1" style="stop-color:#000000"/>
  </linearGradient>
  <filter id="hicg_drop_shadow">
    <feOffset in="SourceAlpha" dx="0" dy="4"/>
    <feGaussianBlur stdDeviation="4"/>
	<feColorMatrix type="matrix" values="1 0 0 0 0  0 1 0 0 0  0 0 1 0 0  0 0 0 0.5 0" result="shadow"/>
    <feBlend in="SourceGraphic" in2="shadow" mode="normal"/>
  </filter>
 </defs>
 <g>
  <path id="hicg_background" fill="#4292ff" d="M79,40c0,28.893-10.105,39-39,39S1,68.893,1,40C1,11.106,11.105,1,40,1S79,11.106,79,40z"/>
  <path id="hicg_highlight" fill="#fff" opacity="0.25" d="M39.999,1C11.105,1,1,11.106,1,40c0,28.893,10.105,39,38.999,39   C68.896,79,79,68.893,79,40C79,11.106,68.896,1,39.999,1z M39.999,78.025C11.57,78.025,1.976,68.43,1.976,40   c0-28.429,9.595-38.024,38.023-38.024c28.43,0,38.024,9.596,38.024,38.024C78.023,68.43,68.429,78.025,39.999,78.025z"/>
  <path id="hicg_overlay" opacity="0.4" fill="url(#hicg_overlay_grad)" d="M78.977,40c0,28.893-10.1,39-38.977,39S1.023,68.893,1.023,40c0-28.894,10.1-39,38.977-39S78.977,11.106,78.977,40z"/>
 </g>
<g xmlns:inkscape="http://www.inkscape.org/namespaces/inkscape" xmlns:sodipodi="http://sodipodi.sourceforge.net/DTD/sodipodi-0.dtd" xmlns:rdf="http://www.w3.org/1999/02/22-rdf-syntax-ns#" xmlns:cc="http://creativecommons.org/ns#" xmlns:dc="http://purl.org/dc/elements/1.1/" transform="translate(13.069230769231, 13) scale(0.13846153846154)">
  <defs xmlns="http://www.w3.org/2000/svg" xmlns:inkscape="http://www.inkscape.org/namespaces/inkscape" xmlns:sodipodi="http://sodipodi.sourceforge.net/DTD/sodipodi-0.dtd" id="defs4">
    <inkscape:perspective sodipodi:type="inkscape:persp3d" inkscape:vp_x="0 : 526.18109 : 1" inkscape:vp_y="0 : 1000 : 0" inkscape:vp_z="744.09448 : 526.18109 : 1" inkscape:persp3d-origin="372.04724 : 350.78739 : 1" id="perspective10"/>
    <inkscape:perspective id="perspective2828" inkscape:persp3d-origin="0.5 : 0.33333333 : 1" inkscape:vp_z="1 : 0.5 : 1" inkscape:vp_y="0 : 1000 : 0" inkscape:vp_x="0 : 0.5 : 1" sodipodi:type="inkscape:persp3d"/>
    <inkscape:perspective id="perspective2828-9" inkscape:persp3d-origin="0.5 : 0.33333333 : 1" inkscape:vp_z="1 : 0.5 : 1" inkscape:vp_y="0 : 1000 : 0" inkscape:vp_x="0 : 0.5 : 1" sodipodi:type="inkscape:persp3d"/>
    <inkscape:perspective id="perspective2828-7" inkscape:persp3d-origin="0.5 : 0.33333333 : 1" inkscape:vp_z="1 : 0.5 : 1" inkscape:vp_y="0 : 1000 : 0" inkscape:vp_x="0 : 0.5 : 1" sodipodi:type="inkscape:persp3d"/>
    <inkscape:perspective id="perspective3660" inkscape:persp3d-origin="0.5 : 0.33333333 : 1" inkscape:vp_z="1 : 0.5 : 1" inkscape:vp_y="0 : 1000 : 0" inkscape:vp_x="0 : 0.5 : 1" sodipodi:type="inkscape:persp3d"/>
    <inkscape:perspective id="perspective3684" inkscape:persp3d-origin="0.5 : 0.33333333 : 1" inkscape:vp_z="1 : 0.5 : 1" inkscape:vp_y="0 : 1000 : 0" inkscape:vp_x="0 : 0.5 : 1" sodipodi:type="inkscape:persp3d"/>
    <inkscape:perspective id="perspective3756" inkscape:persp3d-origin="0.5 : 0.33333333 : 1" inkscape:vp_z="1 : 0.5 : 1" inkscape:vp_y="0 : 1000 : 0" inkscape:vp_x="0 : 0.5 : 1" sodipodi:type="inkscape:persp3d"/>
  </defs>
  <sodipodi:namedview xmlns:sodipodi="http://sodipodi.sourceforge.net/DTD/sodipodi-0.dtd" xmlns:inkscape="http://www.inkscape.org/namespaces/inkscape" id="base" pagecolor="#ffffff" bordercolor="#666666" borderopacity="1.0" inkscape:pageopacity="0.0" inkscape:pageshadow="2" inkscape:zoom="0.98994949" inkscape:cx="-26.297051" inkscape:cy="200.28914" inkscape:document-units="px" inkscape:current-layer="layer1" showgrid="true" inkscape:snap-nodes="false" inkscape:window-width="1680" inkscape:window-height="1001" inkscape:window-x="0" inkscape:window-y="24" inkscape:window-maximized="1">
    <inkscape:grid type="xygrid" id="grid2816" empspacing="5" visible="true" enabled="true" snapvisiblegridlinesonly="true"/>
  </sodipodi:namedview>
  <metadata xmlns="http://www.w3.org/2000/svg" xmlns:rdf="http://www.w3.org/1999/02/22-rdf-syntax-ns#" xmlns:cc="http://creativecommons.org/ns#" xmlns:dc="http://purl.org/dc/elements/1.1/" id="metadata7">
    <rdf:RDF>
      <cc:Work rdf:about="">
        <dc:format>image/svg+xml</dc:format>
        <dc:type rdf:resource="http://purl.org/dc/dcmitype/StillImage"/>
        <dc:title/>
      </cc:Work>
    </rdf:RDF>
  </metadata>
  <g xmlns="http://www.w3.org/2000/svg" xmlns:inkscape="http://www.inkscape.org/namespaces/inkscape" xmlns:sodipodi="http://sodipodi.sourceforge.net/DTD/sodipodi-0.dtd" inkscape:label="Layer 1" inkscape:groupmode="layer" id="layer1" transform="translate(-205.5,-546.13435)">
    <path transform="translate(-130,0)" sodipodi:type="arc" style="fill:#31303f;fill-opacity:1;stroke:#000005;stroke-width:9;stroke-linecap:butt;stroke-miterlimit:0;stroke-opacity:1;stroke-dasharray:none;stroke-dashoffset:0" id="path2818-6" sodipodi:cx="530" sodipodi:cy="742.36218" sodipodi:rx="190" sodipodi:ry="190" d="m 720,742.36218 c 0,104.93411 -85.0659,190 -190,190 -104.9341,0 -190,-85.06589 -190,-190 0,-104.9341 85.0659,-190 190,-190 104.9341,0 190,85.0659 190,190 z"/>
    <path transform="translate(-130,-5)" sodipodi:type="arc" style="fill:#183c6f;fill-opacity:1;stroke:#000005;stroke-width:9;stroke-linecap:butt;stroke-miterlimit:0;stroke-opacity:1;stroke-dasharray:none;stroke-dashoffset:0" id="path2818-6-3" sodipodi:cx="530" sodipodi:cy="742.36218" sodipodi:rx="190" sodipodi:ry="190" d="m 720,742.36218 c 0,50.39114 -20.0178,98.71838 -55.64971,134.35029 L 530,742.36218 z" sodipodi:start="0" sodipodi:end="0.78539816"/>
    <path sodipodi:end="0.78539816" sodipodi:start="0" d="m 720,742.36218 c 0,50.39114 -20.0178,98.71838 -55.64971,134.35029 L 530,742.36218 z" sodipodi:ry="190" sodipodi:rx="190" sodipodi:cy="742.36218" sodipodi:cx="530" id="path3674" style="fill:#183c6f;fill-opacity:1;stroke:#000005;stroke-width:9;stroke-linecap:butt;stroke-miterlimit:0;stroke-opacity:1;stroke-dasharray:none;stroke-dashoffset:0" sodipodi:type="arc" transform="translate(-130,-5)"/>
    <path sodipodi:end="0.78539816" sodipodi:start="0" d="m 720,742.36218 c 0,50.39114 -20.0178,98.71838 -55.64971,134.35029 L 530,742.36218 z" sodipodi:ry="190" sodipodi:rx="190" sodipodi:cy="742.36218" sodipodi:cx="530" id="path3674-6" style="fill:#183c6f;fill-opacity:1;stroke:#000005;stroke-width:9;stroke-linecap:butt;stroke-miterlimit:0;stroke-opacity:1;stroke-dasharray:none;stroke-dashoffset:0" sodipodi:type="arc" transform="matrix(0.72046968,0.69348643,-0.69348643,0.72046968,536.07993,-161.79749)"/>
    <path transform="matrix(0.72046968,0.69348643,-0.69348643,0.72046968,536.07993,-161.79749)" sodipodi:type="arc" style="fill:#4292ff;fill-opacity:1;stroke:#000005;stroke-width:9;stroke-linecap:butt;stroke-miterlimit:0;stroke-opacity:1;stroke-dasharray:none;stroke-dashoffset:0" id="path3746" sodipodi:cx="530" sodipodi:cy="742.36218" sodipodi:rx="190" sodipodi:ry="190" d="m 664.35029,876.71247 c -74.19962,74.19962 -194.50096,74.19962 -268.70058,0 -74.19961,-74.19961 -74.19961,-194.50096 0,-268.70057" sodipodi:start="0.78539816" sodipodi:end="3.9269908" sodipodi:open="true"/>
    <path transform="matrix(0.70065789,0,0,0.70065789,31.776317,222.22026)" sodipodi:type="arc" style="fill:#ffffff;fill-opacity:0.99009901;stroke:#000005;stroke-width:9;stroke-linecap:butt;stroke-miterlimit:0;stroke-opacity:1;stroke-dasharray:none;stroke-dashoffset:0" id="path2818-6-7" sodipodi:cx="530" sodipodi:cy="742.36218" sodipodi:rx="190" sodipodi:ry="190" d="m 720,742.36218 c 0,104.93411 -85.0659,190 -190,190 -104.9341,0 -190,-85.06589 -190,-190 0,-104.9341 85.0659,-190 190,-190 104.9341,0 190,85.0659 190,190 z"/>
    <path style="fill:none;stroke:#bb6f00;stroke-width:13.73091412;stroke-linecap:round;stroke-linejoin:miter;stroke-miterlimit:4;stroke-opacity:1;stroke-dasharray:none" d="m 400.76546,743.12764 22.50969,112.54848" id="path3780"/>
    <path style="fill:none;stroke:#000000;stroke-width:25.7116375;stroke-linecap:round;stroke-linejoin:miter;stroke-miterlimit:4;stroke-opacity:1;stroke-dasharray:none;marker-end:none" d="M 397.74418,740.10636 349.23166,679.46571" id="path3782"/>
    <path style="fill:none;stroke:#000000;stroke-width:18.80755234;stroke-linecap:round;stroke-linejoin:miter;stroke-miterlimit:4;stroke-opacity:1;stroke-dasharray:none" d="m 492.07097,681.33593 -89.14678,56.99549" id="path3966"/>
  </g>
</g></svg>
